<svg width="18" height="22" viewBox="0 0 18 22" fill="none" xmlns="http://www.w3.org/2000/svg">
<path d="M18 6.93387C18 6.45048 18 6.00346 18 5.54606C17.8545 5.54606 17.7089 5.54606 17.5686 5.54606C17.2359 5.54606 16.9033 5.54606 16.5706 5.54606C16.5706 5.53566 16.5706 5.52527 16.5706 5.52007C16.5862 5.52007 16.6018 5.52007 16.6174 5.52007C16.6174 5.05746 16.6174 4.61045 16.6174 4.13745C16.1548 4.13745 15.7026 4.13745 15.2296 4.13745C15.2296 3.66445 15.2296 3.21744 15.2296 2.75484C14.4551 2.75484 13.7066 2.75484 12.9321 2.75484C12.9321 1.82443 12.9321 0.914814 12.9321 0C10.302 0 7.69795 0 5.06786 0C5.06786 0.920012 5.06786 1.82963 5.06786 2.76523C4.28819 2.76523 3.53451 2.76523 2.76003 2.76523C2.76003 3.23303 2.76003 3.67485 2.76003 4.14785C2.28184 4.14785 1.84002 4.14785 1.37742 4.14785C1.37742 4.47531 1.37742 4.79238 1.37742 5.11464C1.37742 5.24978 1.37742 5.38493 1.37742 5.52007C1.37742 5.53046 1.37742 5.54086 1.37742 5.54606C0.920012 5.54606 0.457407 5.54606 0 5.54606C0 6.00866 0 6.45567 0 6.93387C0.447011 6.93387 0.894023 6.93387 1.34103 6.93387C1.35143 6.93387 1.36702 6.93387 1.37742 6.93387C1.36702 6.93387 1.35143 6.93387 1.34103 6.93907C1.35143 7.02743 1.36702 7.1106 1.36702 7.19896C1.36702 11.3156 1.36702 15.4375 1.36702 19.5541C1.36702 19.6425 1.36702 19.7309 1.36702 19.8504C1.82963 19.8504 2.28184 19.8504 2.76523 19.8504C2.76523 20.3338 2.76523 20.786 2.76523 21.2382C6.91828 21.2382 11.0661 21.2382 15.2192 21.2382C15.2192 20.7912 15.2192 20.3442 15.2192 19.8608C15.6922 19.8608 16.1392 19.8608 16.6174 19.8608C16.6174 19.7413 16.6174 19.6581 16.6174 19.5697C16.6174 15.4427 16.6174 11.3156 16.6174 7.19376C16.6174 7.1054 16.633 7.02223 16.6434 6.93387C16.6278 6.93387 16.6122 6.93387 16.5966 6.92867C16.6122 6.92867 16.6278 6.92867 16.6434 6.92867V6.93387H16.6486V6.92867C16.95 6.92867 17.2515 6.92867 17.553 6.92867C17.7089 6.93387 17.8545 6.93387 18 6.93387ZM6.47127 1.38262C8.16055 1.38262 9.83425 1.38262 11.5235 1.38262C11.5235 1.84002 11.5235 2.28703 11.5235 2.74964C9.83945 2.74964 8.16575 2.74964 6.47127 2.74964C6.47127 2.28703 6.47127 1.84002 6.47127 1.38262ZM6.90788 18.4574C6.45567 18.4574 6.00866 18.4574 5.54606 18.4574C5.54086 18.3742 5.53566 18.3015 5.53566 18.2287C5.53566 15.0061 5.53566 11.7834 5.53046 8.56079C5.53046 8.35287 5.58244 8.2853 5.79555 8.2957C6.1594 8.31649 6.52844 8.30089 6.90788 8.30089C6.90788 11.6951 6.90788 15.0684 6.90788 18.4574ZM12.4487 18.4522C11.9965 18.4522 11.5495 18.4522 11.0869 18.4522C11.0869 15.0788 11.0869 11.7107 11.0869 8.31649C11.5443 8.31649 11.9861 8.31649 12.4487 8.31649C12.4487 11.7003 12.4487 15.0684 12.4487 18.4522Z" fill="#6F6497"/>
<path d="M1.34082 6.93908C1.34602 6.93388 1.34602 6.93388 1.34082 6.93908V6.93908Z" fill="#6F6497"/>
<path d="M17.6153 6.93387C17.5997 6.93387 17.5789 6.93387 17.5633 6.93387V6.93907C17.5581 6.93907 17.6153 6.93387 17.6153 6.93387Z" fill="#6F6497"/>
</svg>
