<svg width="20" height="20" viewBox="0 0 20 20" fill="none" xmlns="http://www.w3.org/2000/svg">
<path d="M18.4889 13.3407C18.4148 13.3259 18.1926 13.3259 17.837 13.3259C17.837 12.6 17.837 11.8592 17.837 11.1333C17.1407 11.1333 16.4741 11.1333 15.8222 11.1333C14.9926 11.1333 14.1778 11.1333 13.3481 11.1333C13.3481 11.1185 13.3481 11.1185 13.3481 11.1037C13.3481 10.3629 13.3481 9.63701 13.3481 8.91109C14.0444 8.91109 14.7556 8.91109 15.4519 8.91109C15.4963 8.91109 15.5259 8.91109 15.5704 8.91109C15.5704 6.64442 15.5704 4.43702 15.5704 2.22961C14.8296 2.22961 14.0889 2.22961 13.3481 2.22961C13.3481 1.97776 13.3481 1.7259 13.363 1.45924C13.363 0.985163 13.363 0.496274 13.363 0.00738525C11.1259 0.00738525 8.91852 0.00738525 6.6963 0.00738525C6.6963 0.748126 6.6963 1.48887 6.6963 2.21479C6.6963 2.21479 6.6963 2.21479 6.68148 2.21479C5.94074 2.21479 5.2 2.21479 4.45926 2.21479C4.45926 4.45183 4.45926 6.65924 4.45926 8.89627C4.53333 8.89627 4.59259 8.89627 4.66667 8.89627C4.68148 8.89627 4.71111 8.89627 4.72593 8.89627C5.37778 8.89627 6.02963 8.91109 6.68148 8.91109C6.68148 9.63701 6.68148 10.3629 6.68148 11.1037C6.68148 11.1185 6.68148 11.1185 6.68148 11.1333C5.25926 11.1333 3.82222 11.1333 2.38519 11.1333C2.38519 11.2222 2.38519 11.3111 2.38519 11.3852C2.38519 11.9629 2.37037 13.1037 2.37037 13.1037C2.37037 13.1037 2.37037 13.3407 2.37037 13.3259C2.37037 13.3259 0.148148 13.3259 0 13.3259C0 15.5778 0 17.7852 0 19.9926C6.68148 19.9926 13.3481 19.9926 20 19.9926C20 17.7703 20 15.5481 20 13.3259C19.4963 13.3407 18.9926 13.3407 18.4889 13.3407Z" fill="#231A2B"/>
</svg>
