<svg width="24" height="17" viewBox="0 0 24 17" fill="none" xmlns="http://www.w3.org/2000/svg">
<path d="M24 7.00645C24 8.00428 24 9.00944 24 10.0073C23.9853 10.0806 23.9707 10.1613 23.9633 10.2347C23.8679 11.5334 23.7799 12.832 23.6698 14.1306C23.5745 15.2532 22.5399 16.3097 21.4394 16.4198C20.4562 16.5225 19.4658 16.6252 18.4826 16.7133C16.2742 16.9187 14.0584 16.9921 11.8353 16.9921C8.76846 16.9847 5.72361 16.7793 2.67877 16.4345C1.51953 16.3171 0.455673 15.3339 0.345618 14.1967C0.206216 12.7146 0.0888244 11.2252 0.0301287 9.7358C-0.0652519 7.432 0.0741505 5.13553 0.330944 2.83906C0.455673 1.73117 1.49019 0.681987 2.58339 0.586607C4.53503 0.417857 6.48666 0.234432 8.43829 0.109704C11.1163 -0.0590462 13.7943 -0.0223614 16.4649 0.146389C18.1084 0.256443 19.7372 0.432531 21.366 0.586607C22.5033 0.689324 23.5598 1.70183 23.6625 2.83906C23.7799 4.12302 23.8606 5.40699 23.956 6.69096C23.9707 6.79368 23.9853 6.90374 24 7.00645ZM10.0157 4.51188C10.0157 7.18988 10.0157 9.82385 10.0157 12.4945C12.0261 11.1592 13.9997 9.83852 16.0027 8.50319C13.9924 7.16787 12.0261 5.85455 10.0157 4.51188Z" fill="#231A2B" fill-opacity="0.35"/>
</svg>
