<svg width="22" height="20" viewBox="0 0 22 20" fill="none" xmlns="http://www.w3.org/2000/svg">
<path d="M20.3564 3.40023C20.2952 3.40023 20.2341 3.40023 20.1678 3.40023C20.1678 2.93628 20.1678 2.47234 20.1678 2.00839C19.6885 2.00839 19.2195 2.00839 18.7504 2.00839C18.7504 1.54444 18.7504 1.08559 18.7504 0.621643C16.8437 0.621643 15.0083 0.621643 13.1627 0.621643C13.1627 1.08559 13.1627 1.54444 13.1627 2.00329C12.6885 2.00329 12.2348 2.00329 11.7657 2.00329C11.7657 2.48763 11.7657 2.94138 11.7657 3.40023C11.3018 3.40023 10.8327 3.40023 10.3688 3.40023C10.3688 2.93118 10.3688 2.48253 10.3688 2.01349C9.89976 2.01349 9.43581 2.01349 8.96166 2.01349C8.96166 1.54954 8.96166 1.08559 8.96166 0.621643C7.05999 0.621643 5.22459 0.621643 3.379 0.621643C3.379 1.08559 3.379 1.54954 3.379 2.01349C2.89976 2.01349 2.43581 2.01349 1.97186 2.01349C1.97186 2.48253 1.97186 2.93118 1.97186 3.40023C1.50791 3.40023 1.04396 3.40023 0.580017 3.40023C0.580017 5.94939 0.580017 8.38639 0.580017 10.9458C1.04906 10.9458 1.51811 10.9458 1.98715 10.9458C1.98715 11.4097 1.98715 11.8787 1.98715 12.3427C2.4613 12.3427 2.91505 12.3427 3.379 12.3427C3.379 12.3835 3.379 12.4294 3.379 12.4701C3.379 12.9035 3.379 13.3267 3.379 13.7447C3.84804 13.7447 4.2967 13.7447 4.77084 13.7447C4.77084 14.2087 4.77084 14.6726 4.77084 15.1366C5.23989 15.1366 5.70893 15.1366 6.17798 15.1366C6.17798 15.5801 6.17798 16.0288 6.17798 16.4723C6.17798 16.4927 6.17798 16.5131 6.17798 16.5386C6.65212 16.5386 7.10587 16.5386 7.57492 16.5386C7.57492 16.9873 7.57492 17.4308 7.57492 17.8795C8.04396 17.8795 8.51301 17.8795 8.97696 17.8795C8.97696 18.3791 8.97696 18.8787 8.97696 19.3784C10.379 19.3784 11.7657 19.3784 13.1729 19.3784C13.1729 18.8736 13.1729 18.3791 13.1729 17.8795C13.6368 17.8795 14.1008 17.8795 14.5698 17.8795C14.5698 17.4104 14.5698 16.9414 14.5698 16.4774C15.0338 16.4774 15.4977 16.4774 15.9668 16.4774C15.9668 16.0237 15.9668 15.5801 15.9668 15.1417C16.4358 15.1417 16.9049 15.1417 17.3739 15.1417C17.3739 15.1213 17.3739 15.0958 17.3739 15.0754C17.3739 14.6013 17.3739 14.1475 17.3739 13.6836C17.848 13.6836 18.3069 13.6836 18.7708 13.6836C18.7708 13.2349 18.7708 12.7964 18.7708 12.3478C19.2399 12.3478 19.7038 12.3478 20.1729 12.3478C20.1729 11.8787 20.1729 11.4148 20.1729 10.9508C20.2341 10.9508 20.2952 10.9508 20.3615 10.9508C20.7796 10.9508 21.1823 10.9508 21.58 10.9508C21.58 8.3609 21.58 5.85762 21.58 3.40533C21.162 3.40023 20.7592 3.40023 20.3564 3.40023Z" fill="#6F6497"/>
</svg>
