<svg width="75" height="33" viewBox="0 0 75 33" fill="none" xmlns="http://www.w3.org/2000/svg">
<path d="M44.6351 14.8648V0H50.581V2.97296H53.554V0H59.4999V2.97296H56.5269V5.94592H53.554V8.91889H56.5269V11.8919H59.4999V14.8648H53.554V11.8919H50.581V14.8648H44.6351Z" fill="#1B1521"/>
<path d="M31.5541 14.8648V0H43.4459V2.97296H37.5V5.94592H43.4459V8.91889H37.5V14.8648H31.5541Z" fill="#1B1521"/>
<path d="M15.5001 14.8648V2.97296H18.4731V0H27.392V2.97296H30.3649V14.8648H24.419V8.91889H21.446V14.8648H15.5001ZM21.446 5.94592H24.419V3.09188H21.446V5.94592Z" fill="#1B1521"/>
<path d="M65.1486 32.9999V21.1081H62.1756V18.1351H74.0674V21.1081H71.0945V32.9999H65.1486Z" fill="#1B1521"/>
<path d="M49.0945 32.9999V18.1351H60.9863V21.1081H55.0404V24.0811H60.9863V27.054H55.0404V32.9999H49.0945Z" fill="#1B1521"/>
<path d="M33.0406 32.9999V21.1081H36.0136V18.1351H44.9324V21.1081H47.9054V32.9999H41.9595V27.054H38.9865V32.9999H33.0406ZM38.9865 24.0811H41.9595V21.227H38.9865V24.0811Z" fill="#1B1521"/>
<path d="M16.9866 32.9999V18.1351H28.8784V21.1081H31.8514V24.0811H28.8784V30.027H31.8514V32.9999H25.9055V30.027H22.9325V32.9999H16.9866ZM22.9325 24.0811H25.9055V21.1081H22.9325V24.0811Z" fill="#1B1521"/>
<path d="M3.90558 33V30.027H0.932617V21.1082H3.90558V18.1352H12.8245V21.1082H15.7974V24.0811H9.85151V21.1082H6.87854V30.027H9.85151V27.0541H15.7974V30.027H12.8245V33H3.90558Z" fill="#1B1521"/>
</svg>
