<svg width="24" height="18" viewBox="0 0 24 18" fill="none" xmlns="http://www.w3.org/2000/svg">
<path d="M20.4026 17.1762C20.1795 17.1762 20.0094 17.1815 19.8447 17.1762C19.68 17.1656 19.6375 17.2399 19.6269 17.394C19.595 17.9465 19.5897 17.9359 19.0372 17.9465C18.6175 17.9518 18.1925 17.9944 17.7727 17.9997C17.5284 17.9997 17.2893 17.9412 17.0449 17.9359C16.8005 17.9306 16.5561 17.9625 16.3064 17.9678C16.0036 17.9678 15.7007 17.9572 15.4032 17.9518C15.2279 17.9465 15.0473 17.9465 14.8719 17.9465C13.1453 17.9412 11.4186 17.9306 9.69192 17.9412C8.30527 17.9465 6.9133 17.9944 5.52665 17.9997C5.006 18.005 4.49065 17.9518 3.92749 17.92C3.92749 17.7446 3.92218 17.5693 3.92749 17.3993C3.9328 17.2399 3.86905 17.1762 3.70966 17.1815C3.54497 17.1921 3.37495 17.1815 3.16244 17.1815C3.16244 17.0593 3.16244 16.9477 3.16244 16.8415C3.16244 16.0286 3.15713 15.2104 3.16775 14.3976C3.17307 14.1585 3.104 14.0469 2.8543 14.0788C2.79585 14.0841 2.7321 14.0735 2.66835 14.0788C2.41864 14.1 2.32833 13.9991 2.32833 13.7388C2.33895 12.809 2.33364 11.8793 2.33364 10.923C2.08925 10.923 1.85548 10.923 1.59515 10.923C1.59515 10.1367 1.59515 9.38224 1.59515 8.60126C8.37433 8.60126 15.1588 8.60126 21.9539 8.60126C21.9539 9.36099 21.9539 10.1154 21.9539 10.907C21.768 10.907 21.5927 10.923 21.4227 10.9017C21.1783 10.8805 21.1251 10.9867 21.1305 11.2099C21.1411 12.0493 21.1358 12.894 21.1358 13.7335C21.1358 14.0788 21.1305 14.0788 20.7745 14.0788C20.6629 14.0788 20.546 14.0788 20.3973 14.0788C20.4026 15.0882 20.4026 16.1189 20.4026 17.1762ZM12.5449 14.8545C12.5449 14.5941 12.5449 14.2807 12.5449 13.9672C12.5449 12.7825 12.5502 11.5924 12.5502 10.4076C12.5502 10.3279 12.5396 10.2535 12.5343 10.1473C12.0827 10.1473 11.6417 10.1579 11.2008 10.142C10.9882 10.1367 10.9351 10.211 10.9351 10.4182C10.9457 11.7996 10.9457 13.1809 10.9351 14.5623C10.9351 14.8067 11.0201 14.8651 11.2433 14.8598C11.6524 14.8438 12.0614 14.8545 12.5449 14.8545ZM15.6795 14.8545C16.1523 14.8545 16.5667 14.8385 16.9811 14.8598C17.2361 14.8704 17.3158 14.7907 17.3105 14.5357C17.2999 13.1278 17.3052 11.7199 17.3052 10.312C17.3052 10.2695 17.2946 10.227 17.2893 10.1685C16.758 10.1685 16.2426 10.1685 15.6742 10.1685C15.6795 11.7199 15.6795 13.2659 15.6795 14.8545ZM7.84836 14.8385C7.84836 13.2606 7.84836 11.7146 7.84836 10.1632C7.31708 10.1632 6.80173 10.1632 6.27576 10.1632C6.27576 11.7305 6.27576 13.2819 6.27576 14.8385C6.80705 14.8385 7.31708 14.8385 7.84836 14.8385Z" fill="#6F6497"/>
<path d="M0.856695 7.73013C0.824818 7.45918 0.792941 7.22541 0.761064 6.96508C0.500735 6.96508 0.26697 6.96508 0.00132821 6.96508C0.00132821 6.48161 -0.00398463 6.02471 0.00664105 5.56781C0.00664105 5.51468 0.0916464 5.45624 0.150088 5.41373C0.171339 5.39779 0.219155 5.40842 0.256344 5.40842C0.739813 5.38717 0.745125 5.38717 0.77169 4.92495C0.782315 4.71775 0.872633 4.64337 1.09046 4.64337C3.57687 4.654 6.06328 4.65931 8.555 4.654C12.4387 4.654 16.3277 4.64868 20.2114 4.64337C20.9658 4.64337 21.7149 4.64337 22.4693 4.64868C22.549 4.64868 22.6234 4.654 22.7403 4.65931C22.7403 4.83463 22.7509 5.00464 22.7403 5.16934C22.7296 5.37123 22.8253 5.45092 23.0165 5.46155C23.5797 5.49343 23.5797 5.49343 23.5797 6.05127C23.5797 6.27441 23.5744 6.49224 23.5797 6.71538C23.585 6.89601 23.5213 6.96508 23.33 6.97039C22.7562 6.98102 22.7562 6.98633 22.7403 7.57074C22.7403 7.60793 22.735 7.63981 22.7243 7.72482C15.4351 7.73013 8.15122 7.73013 0.856695 7.73013Z" fill="#6F6497"/>
<path d="M17.3159 4.69102C17.3159 3.63377 17.3159 2.60839 17.3159 1.57239C17.8843 1.57239 18.3997 1.57239 18.931 1.57239C18.9363 1.61489 18.9469 1.64145 18.9469 1.66802C18.9469 2.60308 18.9416 3.54345 18.9522 4.47851C18.9522 4.64852 18.8778 4.70165 18.6228 4.69634C18.2031 4.6804 17.7887 4.69102 17.3159 4.69102Z" fill="#6F6497"/>
<path d="M6.27579 4.68046C5.7445 4.68046 5.23447 4.68046 4.70319 4.68046C4.70319 3.64446 4.70319 2.61377 4.70319 1.56714C5.22384 1.56714 5.73919 1.56714 6.27579 1.56714C6.27579 2.60314 6.27579 3.63383 6.27579 4.68046Z" fill="#6F6497"/>
<path d="M6.27582 1.57248C6.27582 1.04119 6.27582 0.531162 6.27582 -0.00012207C9.9523 -0.00012207 13.6128 -0.00012207 17.3159 -0.00012207C17.3159 0.520536 17.3159 1.03588 17.3159 1.57248C13.6447 1.57248 10.0001 1.57248 6.27582 1.57248Z" fill="#6F6497"/>
<path d="M0 8.99988C0 7.98636 0 7.01339 0 5.99988C7.85244 5.99988 15.6708 5.99988 23.58 5.99988C23.58 6.99312 23.58 7.97623 23.58 8.99988C15.7389 8.99988 7.95456 8.99988 0 8.99988Z" fill="#6F6497"/>
</svg>
