<svg width="21" height="21" viewBox="0 0 21 21" fill="none" xmlns="http://www.w3.org/2000/svg">
<path opacity="0.1" d="M4.10646 20.9897C3.19163 20.9897 2.27166 20.9897 1.35683 20.9897C1.35683 20.5426 1.35683 20.0954 1.35683 19.6329C0.899413 19.6329 0.452276 19.6329 0 19.6329C0 18.7181 0 17.7981 0 16.8833C0.447137 16.8833 0.899413 16.8833 1.37225 16.8833C1.37225 16.4104 1.37225 15.9684 1.37225 15.5007C1.83994 15.5007 2.28708 15.5007 2.75477 15.5007C2.75477 15.0279 2.75477 14.5859 2.75477 14.1285C3.21733 14.1285 3.65932 14.1285 4.12188 14.1285C4.12188 10.7724 4.12188 7.43686 4.12188 4.0859C4.58443 4.0859 5.02643 4.0859 5.48899 4.0859C5.48899 3.62335 5.48899 3.18649 5.48899 2.72394C5.95154 2.72394 6.39354 2.72394 6.86123 2.72394C6.86123 2.25624 6.86123 1.8091 6.86123 1.34141C7.32893 1.34141 7.76579 1.34141 8.22834 1.34141C8.22834 0.873715 8.22834 0.436858 8.22834 0C11.1322 0 14.0154 0 16.9192 0C16.9192 0.457416 16.9192 0.899413 16.9192 1.36197C17.3818 1.36197 17.8186 1.36197 18.2812 1.36197C18.2812 1.82452 18.2812 2.26652 18.2812 2.72908C18.7438 2.72908 19.1858 2.72908 19.6483 2.72908C19.6483 3.19163 19.6483 3.62849 19.6483 4.09104C20.1109 4.09104 20.5529 4.09104 21 4.09104C21 6.99486 21 9.87298 21 12.7819C20.5426 12.7819 20.1057 12.7819 19.6432 12.7819C19.6432 13.2445 19.6432 13.6865 19.6432 14.1439C19.1806 14.1439 18.7335 14.1439 18.2658 14.1439C18.2658 14.6065 18.2658 15.0536 18.2658 15.5162C17.8032 15.5162 17.3664 15.5162 16.9038 15.5162C16.9038 15.9787 16.9038 16.4258 16.9038 16.8935C13.5426 16.8935 10.207 16.8935 6.85095 16.8935C6.85095 17.3561 6.85095 17.793 6.85095 18.2555C6.3884 18.2555 5.9464 18.2555 5.48385 18.2555C5.48385 18.7181 5.48385 19.1601 5.48385 19.6329C5.01615 19.6329 4.56902 19.6329 4.10646 19.6329C4.10646 20.1006 4.10646 20.5477 4.10646 20.9897ZM18.2606 11.3943C18.2606 9.40529 18.2606 7.44714 18.2606 5.46329C17.8084 5.46329 17.3664 5.46329 16.8987 5.46329C16.8987 4.99559 16.8987 4.54846 16.8987 4.08076C16.431 4.08076 15.989 4.08076 15.5264 4.08076C15.5264 3.61821 15.5264 3.18135 15.5264 2.73935C13.5374 2.73935 11.5742 2.73935 9.59031 2.73935C9.59031 3.19163 9.59031 3.62849 9.59031 4.09104C9.12775 4.09104 8.68062 4.09104 8.21292 4.09104C8.21292 4.55874 8.21292 5.00073 8.21292 5.46329C7.75037 5.46329 7.30837 5.46329 6.86637 5.46329C6.86637 7.45228 6.86637 9.41557 6.86637 11.4046C7.32379 11.4046 7.76065 11.4046 8.2232 11.4046C8.2232 11.8671 8.2232 12.3091 8.2232 12.7819C8.6909 12.7819 9.13803 12.7819 9.60573 12.7819C9.60573 13.2496 9.60573 13.6916 9.60573 14.1285C11.5896 14.1285 13.5477 14.1285 15.5316 14.1285C15.5316 13.6762 15.5316 13.2342 15.5316 12.7717C15.9941 12.7717 16.4361 12.7717 16.9038 12.7717C16.9038 12.304 16.9038 11.8568 16.9038 11.3943C17.3715 11.3943 17.8084 11.3943 18.2606 11.3943Z" fill="#231A2B"/>
</svg>
