<svg width="136" height="61" viewBox="0 0 136 61" fill="none" xmlns="http://www.w3.org/2000/svg">
<path d="M80.7832 27.4774V0H91.7742V5.49548H97.2696V0H108.261V5.49548H102.765V10.991H97.2696V16.4864H102.765V21.9819H108.261V27.4774H97.2696V21.9819H91.7742V27.4774H80.7832Z" fill="#6F6497"/>
<path d="M56.6033 27.4774V0H78.5852V5.49548H67.5942V10.991H78.5852V16.4864H67.5942V27.4774H56.6033Z" fill="#6F6497"/>
<path d="M26.9277 27.4774V5.49548H32.4232V0H48.9096V5.49548H54.4051V27.4774H43.4142V16.4864H37.9187V27.4774H26.9277ZM37.9187 10.991H43.4142V5.71529H37.9187V10.991Z" fill="#6F6497"/>
<path d="M118.702 61.0001V39.0182H113.207V33.5227H135.189V39.0182H129.693V61.0001H118.702Z" fill="#6F6497"/>
<path d="M89.0264 61.0001V33.5227H111.008V39.0182H100.017V44.5137H111.008V50.0091H100.017V61.0001H89.0264Z" fill="#6F6497"/>
<path d="M59.3511 61.0001V39.0182H64.8466V33.5227H81.333V39.0182H86.8285V61.0001H75.8375V50.0091H70.342V61.0001H59.3511ZM70.342 44.5137H75.8375V39.238H70.342V44.5137Z" fill="#6F6497"/>
<path d="M29.6755 61.0001V33.5227H51.6574V39.0182H57.1529V44.5137H51.6574V55.5046H57.1529V61.0001H46.162V55.5046H40.6665V61.0001H29.6755ZM40.6665 44.5137H46.162V39.0182H40.6665V44.5137Z" fill="#6F6497"/>
<path d="M5.49548 61.0001V55.5046H0V39.0182H5.49548V33.5227H21.9819V39.0182H27.4774V44.5137H16.4864V39.0182H10.991V55.5046H16.4864V50.0091H27.4774V55.5046H21.9819V61.0001H5.49548Z" fill="#6F6497"/>
</svg>
